<svg id="Layer_1" data-name="Layer 1" xmlns="http://www.w3.org/2000/svg" viewBox="0 0 309.1 46.32"><defs><style>.cls-1,.cls-2{fill:#009;}.cls-1{fill-rule:evenodd;}</style></defs><path class="cls-1" d="M6.89,14.62c1.08-.3,14.45,3.2,28.64,8.8,11.59,4.59,13.25,8.35,13.66,8,.79-.72,4.31-10.8,15.56-17.72C75,7.33,78.83,7.55,77.46,8.23,60.82,17,52.5,34.63,50.39,38.62c-.33.6-6.83-8.28-28.23-17.72C10.78,15.9,5.48,15,6.89,14.62Z"/><path class="cls-2" d="M90.73,38.41H87.06l-1.45-3.8H79l-1.4,3.8H74l6.52-16.64h3.54Zm-6.2-6.58-2.28-6.2L80,31.83Z"/><path class="cls-2" d="M94.4,38.41V21.77h5.37a17.77,17.77,0,0,1,4,.26,4.15,4.15,0,0,1,2.4,1.64,5.17,5.17,0,0,1,1,3.23,35.17,35.17,0,0,1-.32,5.37c-.44,1.33-1.2,2.34-2.72,2.34H97.69v3.8Zm3.35-13.79v7.21h4.81c1.51,0,1.14-4.3,1.14-4.87a2.44,2.44,0,0,0-.51-1.52,2.83,2.83,0,0,0-1.33-.76,17.87,17.87,0,0,0-2.4-.12H97.75Z"/><path class="cls-2" d="M128.11,21.77h3.35v4c0,1.26.06,4.11.13,4.55s.12,1.27,2.4,1.27h3.86l.06-9.81h3.35V38.41h-3.35l.06-3.8h-4a7.35,7.35,0,0,1-4.17-1.2c-1.14-.76-1.65-1.39-1.65-3.35V21.77Z"/><path class="cls-2" d="M146.64,21.77h3.16V32.84l6.77-11.07h3.35V38.41h-3.16V27.59l-6.71,10.88H146.7V21.77Z"/><path class="cls-2" d="M194,32.34h3.42a7.48,7.48,0,0,1-2.66,5.12,7.8,7.8,0,0,1-9.87-1,8.89,8.89,0,0,1-2.15-6.2,9,9,0,0,1,2.15-6.45,7.38,7.38,0,0,1,5.63-2.27,6.91,6.91,0,0,1,4.94,1.83,6.41,6.41,0,0,1,1.83,3.86h-3.48a3.65,3.65,0,0,0-1.2-2,3.56,3.56,0,0,0-2.28-.76,3.69,3.69,0,0,0-3,1.33,6.6,6.6,0,0,0-1.14,4.3c0,2.09.38,3.61,1.14,4.49a3.66,3.66,0,0,0,3,1.33,3.25,3.25,0,0,0,2.28-.82A6.38,6.38,0,0,0,194,32.34Z"/><path class="cls-2" d="M216.46,38.41H212.8l-1.46-3.8H204.7l-1.39,3.8H199.7l6.52-16.64h3.54Zm-6.19-6.58L208,25.63l-2.28,6.2Z"/><path class="cls-2" d="M172.16,21.76l.38,2.78-2.53,7-1.14,3.1h0l-1.39,3.8h-3.54l6.51-16.64h1.71Z"/><path class="cls-2" d="M220.07,38.41V21.77h3.35v6.58h6.64V21.77h3.35V38.41h-3.35V31.14h-6.58v7.27Z"/><path class="cls-2" d="M246.81,38.41V21.77h3.38v6.56h6.56V21.77h3.38V38.41h-3.38V31.15h-6.56v7.26Z"/><path class="cls-2" d="M279.77,38.41h-3.66l-1.45-3.8H268l-1.36,3.8h-3.56l6.47-16.64h3.56Zm-6.19-6.56-2.3-6.19L269,31.85Z"/><path class="cls-2" d="M282.67,38.41V21.77h5l2.95,8,3.05-8h5.06V38.41h-3.14V25.29l-3.28,9.28H289.1l-3.28-9.28V38.41Z"/><path class="cls-2" d="M171,21.76h7.84V38.33h-3.35V24.61H171C171,23.53,171,22.58,171,21.76Z"/><path class="cls-2" d="M123.14,34h-3.35V24.61H115.3c0-1.08-.06-2-.06-2.79h7.84V34Z"/><path class="cls-2" d="M124.66,38.4h-2.78l-.07-1.65h-10.5l.07,1.65h-2.79L108.53,34H124.6Z"/><path class="cls-2" d="M110,34l4.74-12.15h1.71l.38,2.79-2.53,7L113.4,34H110Z"/></svg>